<svg class="main-svg" xmlns="http://www.w3.org/2000/svg" xmlns:xlink="http://www.w3.org/1999/xlink" width="700" height="500" style="" viewBox="0 0 700 500"><rect x="0" y="0" width="700" height="500" style="fill: rgb(255, 255, 255); fill-opacity: 1;"/><defs id="defs-14fc83"><g class="clips"><clipPath id="clip14fc83xyplot" class="plotclip"><rect width="608" height="396"/></clipPath><clipPath class="axesclip" id="clip14fc83x"><rect x="60" y="0" width="608" height="500"/></clipPath><clipPath class="axesclip" id="clip14fc83y"><rect x="0" y="25" width="700" height="396"/></clipPath><clipPath class="axesclip" id="clip14fc83xy"><rect x="60" y="25" width="608" height="396"/></clipPath></g><g class="gradients"/><g class="patterns"/></defs><g class="bglayer"/><g class="layer-below"><g class="imagelayer"/><g class="shapelayer"/></g><g class="cartesianlayer"><g class="subplot xy"><g class="layer-subplot"><g class="shapelayer"/><g class="imagelayer"/></g><g class="gridlayer"><g class="x"><path class="xgrid crisp" transform="translate(93.78,0)" d="M0,25v396" style="stroke: rgb(238, 238, 238); stroke-opacity: 1; stroke-width: 1px;"/><path class="xgrid crisp" transform="translate(127.56,0)" d="M0,25v396" style="stroke: rgb(238, 238, 238); stroke-opacity: 1; stroke-width: 1px;"/><path class="xgrid crisp" transform="translate(161.32999999999998,0)" d="M0,25v396" style="stroke: rgb(238, 238, 238); stroke-opacity: 1; stroke-width: 1px;"/><path class="xgrid crisp" transform="translate(195.11,0)" d="M0,25v396" style="stroke: rgb(238, 238, 238); stroke-opacity: 1; stroke-width: 1px;"/><path class="xgrid crisp" transform="translate(228.89,0)" d="M0,25v396" style="stroke: rgb(238, 238, 238); stroke-opacity: 1; stroke-width: 1px;"/><path class="xgrid crisp" transform="translate(262.66999999999996,0)" d="M0,25v396" style="stroke: rgb(238, 238, 238); stroke-opacity: 1; stroke-width: 1px;"/><path class="xgrid crisp" transform="translate(296.44,0)" d="M0,25v396" style="stroke: rgb(238, 238, 238); stroke-opacity: 1; stroke-width: 1px;"/><path class="xgrid crisp" transform="translate(330.22,0)" d="M0,25v396" style="stroke: rgb(238, 238, 238); stroke-opacity: 1; stroke-width: 1px;"/><path class="xgrid crisp" transform="translate(364,0)" d="M0,25v396" style="stroke: rgb(238, 238, 238); stroke-opacity: 1; stroke-width: 1px;"/><path class="xgrid crisp" transform="translate(397.78,0)" d="M0,25v396" style="stroke: rgb(238, 238, 238); stroke-opacity: 1; stroke-width: 1px;"/><path class="xgrid crisp" transform="translate(431.56,0)" d="M0,25v396" style="stroke: rgb(238, 238, 238); stroke-opacity: 1; stroke-width: 1px;"/><path class="xgrid crisp" transform="translate(465.33,0)" d="M0,25v396" style="stroke: rgb(238, 238, 238); stroke-opacity: 1; stroke-width: 1px;"/><path class="xgrid crisp" transform="translate(499.11,0)" d="M0,25v396" style="stroke: rgb(238, 238, 238); stroke-opacity: 1; stroke-width: 1px;"/><path class="xgrid crisp" transform="translate(532.89,0)" d="M0,25v396" style="stroke: rgb(238, 238, 238); stroke-opacity: 1; stroke-width: 1px;"/><path class="xgrid crisp" transform="translate(566.6700000000001,0)" d="M0,25v396" style="stroke: rgb(238, 238, 238); stroke-opacity: 1; stroke-width: 1px;"/><path class="xgrid crisp" transform="translate(600.44,0)" d="M0,25v396" style="stroke: rgb(238, 238, 238); stroke-opacity: 1; stroke-width: 1px;"/><path class="xgrid crisp" transform="translate(634.22,0)" d="M0,25v396" style="stroke: rgb(238, 238, 238); stroke-opacity: 1; stroke-width: 1px;"/></g><g class="y"><path class="ygrid crisp" transform="translate(0,371.97)" d="M60,0h608" style="stroke: rgb(238, 238, 238); stroke-opacity: 1; stroke-width: 1px;"/><path class="ygrid crisp" transform="translate(0,312.11)" d="M60,0h608" style="stroke: rgb(238, 238, 238); stroke-opacity: 1; stroke-width: 1px;"/><path class="ygrid crisp" transform="translate(0,252.25)" d="M60,0h608" style="stroke: rgb(238, 238, 238); stroke-opacity: 1; stroke-width: 1px;"/><path class="ygrid crisp" transform="translate(0,192.4)" d="M60,0h608" style="stroke: rgb(238, 238, 238); stroke-opacity: 1; stroke-width: 1px;"/><path class="ygrid crisp" transform="translate(0,132.54000000000002)" d="M60,0h608" style="stroke: rgb(238, 238, 238); stroke-opacity: 1; stroke-width: 1px;"/><path class="ygrid crisp" transform="translate(0,72.68)" d="M60,0h608" style="stroke: rgb(238, 238, 238); stroke-opacity: 1; stroke-width: 1px;"/></g></g><g class="zerolinelayer"/><path class="xlines-below"/><path class="ylines-below"/><g class="overlines-below"/><g class="xaxislayer-below"/><g class="yaxislayer-below"/><g class="overaxes-below"/><g class="plot" transform="translate(60,25)" clip-path="url(#clip14fc83xyplot)"><g class="scatterlayer mlayer"><g class="trace scatter trace6969f6" style="stroke-miterlimit: 2; opacity: 1;"><g class="fills"/><g class="errorbars"/><g class="lines"><path class="js-line" d="M0,308.59L33.78,341.48L67.56,348.59L101.33,363.44L135.11,336.98L168.89,327.7L202.67,313.98L236.44,316.46L270.22,300.82L304,268.39L337.78,292.4L371.56,330.98L405.33,322.05L439.11,376.2L472.89,365.82L506.67,330.36L540.44,340.3L574.22,356.35L608,336.8" style="vector-effect: non-scaling-stroke; fill: none; stroke: rgb(255, 0, 0); stroke-opacity: 1; stroke-width: 2px; opacity: 1;"/></g><g class="points"/><g class="text"/></g><g class="trace scatter trace92848d" style="stroke-miterlimit: 2; opacity: 1;"><g class="fills"/><g class="errorbars"/><g class="lines"><path class="js-line" d="M0,74.76L33.78,71.16L67.56,72.94L101.33,67.63L135.11,69.33L168.89,62.66L202.67,57.35L236.44,19.8L270.22,38.73L304,48.71L337.78,69.74L371.56,71.92L405.33,61.64L439.11,57.19L472.89,57.53L506.67,55.62L540.44,55.24L574.22,58.16L608,48.16" style="vector-effect: non-scaling-stroke; fill: none; stroke: rgb(0, 0, 0); stroke-opacity: 1; stroke-width: 2px; opacity: 1;"/></g><g class="points"/><g class="text"/></g><g class="trace scatter trace6f1c20" style="stroke-miterlimit: 2; opacity: 1;"><g class="fills"/><g class="errorbars"/><g class="lines"><path class="js-line" d="M0,169.6L67.56,168.4L101.33,163.8L135.11,166.25L168.89,154.47L202.67,155.77L236.44,153.71L270.22,145.94L304,152.18L371.56,155.63L405.33,155.57L439.11,156.5L472.89,160.51L506.67,163.64L540.44,164.78L574.22,157.67L608,160.76" style="vector-effect: non-scaling-stroke; fill: none; stroke: rgb(255, 165, 0); stroke-opacity: 1; stroke-width: 2px; opacity: 1;"/></g><g class="points"/><g class="text"/></g><g class="trace scatter trace4d996a" style="stroke-miterlimit: 2; opacity: 1;"><g class="fills"/><g class="errorbars"/><g class="lines"><path class="js-line" d="M0,171.91L67.56,163.4L101.33,152.5L135.11,137.6L168.89,134.47L202.67,137.61L236.44,135.37L270.22,127.83L304,126.05L337.78,143.31L371.56,156.9L405.33,158.31L439.11,162.31L472.89,174.16L506.67,174.57L540.44,182.54L574.22,181.03L608,182.42" style="vector-effect: non-scaling-stroke; fill: none; stroke: rgb(0, 0, 255); stroke-opacity: 1; stroke-width: 2px; opacity: 1;"/></g><g class="points"/><g class="text"/></g></g></g><g class="overplot"/><path class="xlines-above crisp" style="fill: none;" d="M0,0"/><path class="ylines-above crisp" style="fill: none;" d="M0,0"/><g class="overlines-above"/><g class="xaxislayer-above"><g class="xtick"><text text-anchor="start" x="0" y="432" transform="translate(60,0) rotate(45,0,427)" style="font-family: 'Open Sans', verdana, arial, sans-serif; font-size: 10px; fill: rgb(68, 68, 68); fill-opacity: 1; white-space: pre; opacity: 1;">2001</text></g><g class="xtick"><text text-anchor="start" x="0" y="432" style="font-family: 'Open Sans', verdana, arial, sans-serif; font-size: 10px; fill: rgb(68, 68, 68); fill-opacity: 1; white-space: pre; opacity: 1;" transform="translate(93.78,0) rotate(45,0,427)">2002</text></g><g class="xtick"><text text-anchor="start" x="0" y="432" style="font-family: 'Open Sans', verdana, arial, sans-serif; font-size: 10px; fill: rgb(68, 68, 68); fill-opacity: 1; white-space: pre; opacity: 1;" transform="translate(127.56,0) rotate(45,0,427)">2003</text></g><g class="xtick"><text text-anchor="start" x="0" y="432" style="font-family: 'Open Sans', verdana, arial, sans-serif; font-size: 10px; fill: rgb(68, 68, 68); fill-opacity: 1; white-space: pre; opacity: 1;" transform="translate(161.32999999999998,0) rotate(45,0,427)">2004</text></g><g class="xtick"><text text-anchor="start" x="0" y="432" style="font-family: 'Open Sans', verdana, arial, sans-serif; font-size: 10px; fill: rgb(68, 68, 68); fill-opacity: 1; white-space: pre; opacity: 1;" transform="translate(195.11,0) rotate(45,0,427)">2005</text></g><g class="xtick"><text text-anchor="start" x="0" y="432" style="font-family: 'Open Sans', verdana, arial, sans-serif; font-size: 10px; fill: rgb(68, 68, 68); fill-opacity: 1; white-space: pre; opacity: 1;" transform="translate(228.89,0) rotate(45,0,427)">2006</text></g><g class="xtick"><text text-anchor="start" x="0" y="432" style="font-family: 'Open Sans', verdana, arial, sans-serif; font-size: 10px; fill: rgb(68, 68, 68); fill-opacity: 1; white-space: pre; opacity: 1;" transform="translate(262.66999999999996,0) rotate(45,0,427)">2007</text></g><g class="xtick"><text text-anchor="start" x="0" y="432" style="font-family: 'Open Sans', verdana, arial, sans-serif; font-size: 10px; fill: rgb(68, 68, 68); fill-opacity: 1; white-space: pre; opacity: 1;" transform="translate(296.44,0) rotate(45,0,427)">2008</text></g><g class="xtick"><text text-anchor="start" x="0" y="432" style="font-family: 'Open Sans', verdana, arial, sans-serif; font-size: 10px; fill: rgb(68, 68, 68); fill-opacity: 1; white-space: pre; opacity: 1;" transform="translate(330.22,0) rotate(45,0,427)">2009</text></g><g class="xtick"><text text-anchor="start" x="0" y="432" style="font-family: 'Open Sans', verdana, arial, sans-serif; font-size: 10px; fill: rgb(68, 68, 68); fill-opacity: 1; white-space: pre; opacity: 1;" transform="translate(364,0) rotate(45,0,427)">2010</text></g><g class="xtick"><text text-anchor="start" x="0" y="432" style="font-family: 'Open Sans', verdana, arial, sans-serif; font-size: 10px; fill: rgb(68, 68, 68); fill-opacity: 1; white-space: pre; opacity: 1;" transform="translate(397.78,0) rotate(45,0,427)">2011</text></g><g class="xtick"><text text-anchor="start" x="0" y="432" style="font-family: 'Open Sans', verdana, arial, sans-serif; font-size: 10px; fill: rgb(68, 68, 68); fill-opacity: 1; white-space: pre; opacity: 1;" transform="translate(431.56,0) rotate(45,0,427)">2012</text></g><g class="xtick"><text text-anchor="start" x="0" y="432" style="font-family: 'Open Sans', verdana, arial, sans-serif; font-size: 10px; fill: rgb(68, 68, 68); fill-opacity: 1; white-space: pre; opacity: 1;" transform="translate(465.33,0) rotate(45,0,427)">2013</text></g><g class="xtick"><text text-anchor="start" x="0" y="432" style="font-family: 'Open Sans', verdana, arial, sans-serif; font-size: 10px; fill: rgb(68, 68, 68); fill-opacity: 1; white-space: pre; opacity: 1;" transform="translate(499.11,0) rotate(45,0,427)">2014</text></g><g class="xtick"><text text-anchor="start" x="0" y="432" style="font-family: 'Open Sans', verdana, arial, sans-serif; font-size: 10px; fill: rgb(68, 68, 68); fill-opacity: 1; white-space: pre; opacity: 1;" transform="translate(532.89,0) rotate(45,0,427)">2015</text></g><g class="xtick"><text text-anchor="start" x="0" y="432" style="font-family: 'Open Sans', verdana, arial, sans-serif; font-size: 10px; fill: rgb(68, 68, 68); fill-opacity: 1; white-space: pre; opacity: 1;" transform="translate(566.6700000000001,0) rotate(45,0,427)">2016</text></g><g class="xtick"><text text-anchor="start" x="0" y="432" style="font-family: 'Open Sans', verdana, arial, sans-serif; font-size: 10px; fill: rgb(68, 68, 68); fill-opacity: 1; white-space: pre; opacity: 1;" transform="translate(600.44,0) rotate(45,0,427)">2017</text></g><g class="xtick"><text text-anchor="start" x="0" y="432" style="font-family: 'Open Sans', verdana, arial, sans-serif; font-size: 10px; fill: rgb(68, 68, 68); fill-opacity: 1; white-space: pre; opacity: 1;" transform="translate(634.22,0) rotate(45,0,427)">2018</text></g><g class="xtick"><text text-anchor="start" x="0" y="432" style="font-family: 'Open Sans', verdana, arial, sans-serif; font-size: 10px; fill: rgb(68, 68, 68); fill-opacity: 1; white-space: pre; opacity: 1;" transform="translate(668,0) rotate(45,0,427)">2019</text></g></g><g class="yaxislayer-above"><g class="ytick"><text text-anchor="end" x="59" y="3.5" transform="translate(0,371.97)" style="font-family: 'Open Sans', verdana, arial, sans-serif; font-size: 10px; fill: rgb(68, 68, 68); fill-opacity: 1; white-space: pre; opacity: 1;">60</text></g><g class="ytick"><text text-anchor="end" x="59" y="3.5" style="font-family: 'Open Sans', verdana, arial, sans-serif; font-size: 10px; fill: rgb(68, 68, 68); fill-opacity: 1; white-space: pre; opacity: 1;" transform="translate(0,312.11)">65</text></g><g class="ytick"><text text-anchor="end" x="59" y="3.5" style="font-family: 'Open Sans', verdana, arial, sans-serif; font-size: 10px; fill: rgb(68, 68, 68); fill-opacity: 1; white-space: pre; opacity: 1;" transform="translate(0,252.25)">70</text></g><g class="ytick"><text text-anchor="end" x="59" y="3.5" style="font-family: 'Open Sans', verdana, arial, sans-serif; font-size: 10px; fill: rgb(68, 68, 68); fill-opacity: 1; white-space: pre; opacity: 1;" transform="translate(0,192.4)">75</text></g><g class="ytick"><text text-anchor="end" x="59" y="3.5" style="font-family: 'Open Sans', verdana, arial, sans-serif; font-size: 10px; fill: rgb(68, 68, 68); fill-opacity: 1; white-space: pre; opacity: 1;" transform="translate(0,132.54000000000002)">80</text></g><g class="ytick"><text text-anchor="end" x="59" y="3.5" style="font-family: 'Open Sans', verdana, arial, sans-serif; font-size: 10px; fill: rgb(68, 68, 68); fill-opacity: 1; white-space: pre; opacity: 1;" transform="translate(0,72.68)">85</text></g></g><g class="overaxes-above"/></g></g><g class="polarlayer"/><g class="ternarylayer"/><g class="geolayer"/><g class="funnelarealayer"/><g class="pielayer"/><g class="iciclelayer"/><g class="treemaplayer"/><g class="sunburstlayer"/><g class="glimages"/><defs id="topdefs-14fc83"><g class="clips"/><clipPath id="legend14fc83"><rect width="490" height="29" x="0" y="0"/></clipPath></defs><g class="layer-above"><g class="imagelayer"/><g class="shapelayer"/></g><g class="infolayer"><g class="legend" pointer-events="all" transform="translate(119,460.6)"><rect class="bg" shape-rendering="crispEdges" style="stroke: rgb(68, 68, 68); stroke-opacity: 1; fill: rgb(255, 255, 255); fill-opacity: 1; stroke-width: 0px;" width="490" height="29" x="0" y="0"/><g class="scrollbox" transform="" clip-path="url(#legend14fc83)"><g class="groups"><g class="traces" style="opacity: 1;" transform="translate(0,14.5)"><text class="legendtext" text-anchor="start" x="40" y="4.680000000000001" style="font-family: 'Open Sans', verdana, arial, sans-serif; font-size: 12px; fill: rgb(68, 68, 68); fill-opacity: 1; white-space: pre;">Valore minimo</text><g class="layers" style="opacity: 1;"><g class="legendfill"/><g class="legendlines"><path class="js-line" d="M5,0h30" style="fill: none; stroke: rgb(255, 0, 0); stroke-opacity: 1; stroke-width: 2px;"/></g><g class="legendsymbols"><g class="legendpoints"/></g></g><rect class="legendtoggle" x="0" y="-9.5" width="130.015625" height="19" style="fill: rgb(0, 0, 0); fill-opacity: 0;"/></g><g class="traces" style="opacity: 1;" transform="translate(132.515625,14.5)"><text class="legendtext" text-anchor="start" x="40" y="4.680000000000001" style="font-family: 'Open Sans', verdana, arial, sans-serif; font-size: 12px; fill: rgb(68, 68, 68); fill-opacity: 1; white-space: pre;">Valore massimo</text><g class="layers" style="opacity: 1;"><g class="legendfill"/><g class="legendlines"><path class="js-line" d="M5,0h30" style="fill: none; stroke: rgb(0, 0, 0); stroke-opacity: 1; stroke-width: 2px;"/></g><g class="legendsymbols"><g class="legendpoints"/></g></g><rect class="legendtoggle" x="0" y="-9.5" width="138.84375" height="19" style="fill: rgb(0, 0, 0); fill-opacity: 0;"/></g><g class="traces" style="opacity: 1;" transform="translate(273.859375,14.5)"><text class="legendtext" text-anchor="start" x="40" y="4.680000000000001" style="font-family: 'Open Sans', verdana, arial, sans-serif; font-size: 12px; fill: rgb(68, 68, 68); fill-opacity: 1; white-space: pre;">Valore mediano</text><g class="layers" style="opacity: 1;"><g class="legendfill"/><g class="legendlines"><path class="js-line" d="M5,0h30" style="fill: none; stroke: rgb(255, 165, 0); stroke-opacity: 1; stroke-width: 2px;"/></g><g class="legendsymbols"><g class="legendpoints"/></g></g><rect class="legendtoggle" x="0" y="-9.5" width="136.875" height="19" style="fill: rgb(0, 0, 0); fill-opacity: 0;"/></g><g class="traces" style="opacity: 1;" transform="translate(413.234375,14.5)"><text class="legendtext" text-anchor="start" x="40" y="4.680000000000001" style="font-family: 'Open Sans', verdana, arial, sans-serif; font-size: 12px; fill: rgb(68, 68, 68); fill-opacity: 1; white-space: pre;">Italia</text><g class="layers" style="opacity: 1;"><g class="legendfill"/><g class="legendlines"><path class="js-line" d="M5,0h30" style="fill: none; stroke: rgb(0, 0, 255); stroke-opacity: 1; stroke-width: 2px;"/></g><g class="legendsymbols"><g class="legendpoints"/></g></g><rect class="legendtoggle" x="0" y="-9.5" width="73.28125" height="19" style="fill: rgb(0, 0, 0); fill-opacity: 0;"/></g></g></g><rect class="scrollbar" rx="20" ry="3" width="0" height="0" style="fill: rgb(128, 139, 164); fill-opacity: 1;" x="0" y="0"/></g><g class="g-gtitle"/><g class="g-xtitle"/><g class="g-ytitle"><text class="ytitle" transform="rotate(-90,22,223)" x="22" y="223" text-anchor="middle" style="font-family: 'Open Sans', verdana, arial, sans-serif; font-size: 14px; fill: rgb(68, 68, 68); opacity: 1; font-weight: normal; white-space: pre;">%</text></g></g></svg>